<?xml version="1.0" encoding="utf-8"?>
<!-- Generator: Adobe Illustrator 19.2.1, SVG Export Plug-In . SVG Version: 6.00 Build 0)  -->
<svg version="1.1" id="Livello_1" xmlns="http://www.w3.org/2000/svg" xmlns:xlink="http://www.w3.org/1999/xlink" x="0px" y="0px"
	 viewBox="0 0 348 348" style="enable-background:new 0 0 348 348;" xml:space="preserve">
<style type="text/css">
	.st0{clip-path:url(#SVGID_2_);}
	.st1{fill-opacity:0;}
	.st2{fill:#FFFFFF;}
	.st3{fill:none;stroke:#000000;stroke-width:2;stroke-linejoin:round;stroke-miterlimit:10;}
	.st4{fill:none;}
	.st5{font-family:'MyriadPro-Regular';}
	.st6{font-size:30px;}
</style>
<g id="Livello_1_1_">
	<g>
		<g>
			<defs>
				<rect id="SVGID_1_" width="348" height="348"/>
			</defs>
			<clipPath id="SVGID_2_">
				<use xlink:href="#SVGID_1_"  style="overflow:visible;"/>
			</clipPath>
			<g class="st0">
				<path class="st1" d="M0,0h348v348H0V0z"/>
				<path class="st2" d="M-6,0h348v348H-6V0z"/>
				<path class="st1" d="M5.5,5.2h336.9v337.7H5.5V5.2z"/>
				<path class="st3" d="M5.5,5.2h336.9v337.7H5.5V5.2z"/>
				<path class="st2" d="M282.7,40.6L282.7,40.6c0-8.4,7-15.2,15.6-15.2l0,0c4.1,0,8.1,1.6,11,4.4s4.6,6.7,4.6,10.7l0,0
					c0,8.4-7,15.2-15.6,15.2l0,0C289.7,55.7,282.7,48.9,282.7,40.6z"/>
				<path class="st3" d="M282.7,40.6L282.7,40.6c0-8.4,7-15.2,15.6-15.2l0,0c4.1,0,8.1,1.6,11,4.4s4.6,6.7,4.6,10.7l0,0
					c0,8.4-7,15.2-15.6,15.2l0,0C289.7,55.7,282.7,48.9,282.7,40.6z"/>
				<path class="st1" d="M254,28.8V58H28.2V28.8H254z"/>
				<path class="st3" d="M254,28.8V58H28.2V28.8H254z"/>
				<path class="st1" d="M187.7,35.2L187.7,35.2c5,0,9,3.7,9,8.2l0,0c0,2.2-1,4.3-2.6,5.8c-1.7,1.5-4,2.4-6.4,2.4l0,0
					c-5,0-9-3.7-9-8.2l0,0C178.6,38.9,182.7,35.2,187.7,35.2z"/>
				<path class="st3" d="M187.7,35.2L187.7,35.2c5,0,9,3.7,9,8.2l0,0c0,2.2-1,4.3-2.6,5.8c-1.7,1.5-4,2.4-6.4,2.4l0,0
					c-5,0-9-3.7-9-8.2l0,0C178.6,38.9,182.7,35.2,187.7,35.2z"/>
				<path class="st1" d="M153.8,35.2L153.8,35.2c5,0,9,3.7,9,8.2l0,0c0,2.2-1,4.3-2.6,5.8c-1.7,1.5-4,2.4-6.4,2.4l0,0
					c-5,0-9-3.7-9-8.2l0,0C144.8,38.9,148.8,35.2,153.8,35.2z"/>
				<path class="st3" d="M153.8,35.2L153.8,35.2c5,0,9,3.7,9,8.2l0,0c0,2.2-1,4.3-2.6,5.8c-1.7,1.5-4,2.4-6.4,2.4l0,0
					c-5,0-9-3.7-9-8.2l0,0C144.8,38.9,148.8,35.2,153.8,35.2z"/>
				<path class="st1" d="M120,35.2L120,35.2c5,0,9,3.7,9,8.2l0,0c0,2.2-1,4.3-2.6,5.8c-1.7,1.5-4,2.4-6.4,2.4l0,0c-5,0-9-3.7-9-8.2
					l0,0C111,38.9,115,35.2,120,35.2z"/>
				<path class="st3" d="M120,35.2L120,35.2c5,0,9,3.7,9,8.2l0,0c0,2.2-1,4.3-2.6,5.8c-1.7,1.5-4,2.4-6.4,2.4l0,0c-5,0-9-3.7-9-8.2
					l0,0C111,38.9,115,35.2,120,35.2z"/>
				<path class="st1" d="M52.3,35.2L52.3,35.2c5,0,9,3.7,9,8.2l0,0c0,2.2-1,4.3-2.6,5.8c-1.7,1.5-4,2.4-6.4,2.4l0,0
					c-5,0-9-3.7-9-8.2l0,0C43.3,38.9,47.3,35.2,52.3,35.2z"/>
				<path class="st3" d="M52.3,35.2L52.3,35.2c5,0,9,3.7,9,8.2l0,0c0,2.2-1,4.3-2.6,5.8c-1.7,1.5-4,2.4-6.4,2.4l0,0
					c-5,0-9-3.7-9-8.2l0,0C43.3,38.9,47.3,35.2,52.3,35.2z"/>
				<path class="st1" d="M86.2,35.2L86.2,35.2c5,0,9,3.7,9,8.2l0,0c0,2.2-1,4.3-2.6,5.8c-1.7,1.5-4,2.4-6.4,2.4l0,0
					c-5,0-9-3.7-9-8.2l0,0C77.1,38.9,81.2,35.2,86.2,35.2z"/>
				<path class="st3" d="M86.2,35.2L86.2,35.2c5,0,9,3.7,9,8.2l0,0c0,2.2-1,4.3-2.6,5.8c-1.7,1.5-4,2.4-6.4,2.4l0,0
					c-5,0-9-3.7-9-8.2l0,0C77.1,38.9,81.2,35.2,86.2,35.2z"/>
				<path class="st1" d="M221.5,35.2L221.5,35.2c5,0,9,3.7,9,8.2l0,0c0,2.2-1,4.3-2.6,5.8c-1.7,1.5-4,2.4-6.4,2.4l0,0
					c-5,0-9-3.7-9-8.2l0,0C212.5,38.9,216.5,35.2,221.5,35.2z"/>
				<path class="st3" d="M221.5,35.2L221.5,35.2c5,0,9,3.7,9,8.2l0,0c0,2.2-1,4.3-2.6,5.8c-1.7,1.5-4,2.4-6.4,2.4l0,0
					c-5,0-9-3.7-9-8.2l0,0C212.5,38.9,216.5,35.2,221.5,35.2z"/>
				<path class="st1" d="M254,58v29.2H28.2V58H254z"/>
				<path class="st3" d="M254,58v29.2H28.2V58H254z"/>
				<path class="st1" d="M302.4,249.9V279H28.2v-29.2L302.4,249.9L302.4,249.9z"/>
				<path class="st3" d="M302.4,249.9V279H28.2v-29.2L302.4,249.9L302.4,249.9z"/>
				<path class="st1" d="M302.4,279v43.8H28.2V279H302.4z"/>
				<path class="st3" d="M302.4,279v43.8H28.2V279H302.4z"/>
				<path class="st1" d="M33.6,282.4h31.5l5.7,5.7v28.3l0,0H39.2l-5.7-5.7L33.6,282.4L33.6,282.4z"/>
				<path class="st3" d="M33.6,282.4h31.5l5.7,5.7v28.3l0,0H39.2l-5.7-5.7L33.6,282.4L33.6,282.4z"/>
				<path class="st1" d="M80,282.4h31.5l5.7,5.7v28.3l0,0H85.7l-5.7-5.7V282.4z"/>
				<path class="st3" d="M80,282.4h31.5l5.7,5.7v28.3l0,0H85.7l-5.7-5.7V282.4z"/>
				<path class="st1" d="M126.5,282.4h32.6l5.7,5.7v28.3l0,0h-32.6l-5.7-5.7L126.5,282.4L126.5,282.4z"/>
				<path class="st3" d="M126.5,282.4h32.6l5.7,5.7v28.3l0,0h-32.6l-5.7-5.7L126.5,282.4L126.5,282.4z"/>
				<path class="st1" d="M173,282.4h32.6l5.7,5.7v28.3l0,0h-32.6l-5.7-5.7L173,282.4L173,282.4z"/>
				<path class="st3" d="M173,282.4h32.6l5.7,5.7v28.3l0,0h-32.6l-5.7-5.7L173,282.4L173,282.4z"/>
				<path class="st1" d="M219.4,282.4H252l5.7,5.7v28.3l0,0h-32.6l-5.7-5.7L219.4,282.4L219.4,282.4z"/>
				<path class="st3" d="M219.4,282.4H252l5.7,5.7v28.3l0,0h-32.6l-5.7-5.7L219.4,282.4L219.4,282.4z"/>
				<path class="st1" d="M52.2,73.4c1.8,17.6-6.1,35-6.1,52.7c0,21,0.6,42.9,8,62.5c2.1,5.7,8.5,9.9,8.9,16
					c1.3,19.7-10.3,38.6-10.3,58.3"/>
				<path class="st3" d="M52.2,73.4c1.8,17.6-6.1,35-6.1,52.7c0,21,0.6,42.9,8,62.5c2.1,5.7,8.5,9.9,8.9,16
					c1.3,19.7-10.3,38.6-10.3,58.3"/>
				<path class="st1" d="M85.1,72.4c18.8,7.5,0.4,40.5-1.4,60.7c-2.6,29.3,20.2,58.3,14.1,87c-2.2,10.6-13.7,18.3-14.6,29.2
					c-0.4,5.6,7,9.7,12.2,11.8"/>
				<path class="st3" d="M85.1,72.4c18.8,7.5,0.4,40.5-1.4,60.7c-2.6,29.3,20.2,58.3,14.1,87c-2.2,10.6-13.7,18.3-14.6,29.2
					c-0.4,5.6,7,9.7,12.2,11.8"/>
				<path class="st1" d="M120.9,70.1c21-1.8,15.2,41.1,12.7,62.1c-2.5,21.2,22,38.9,21.6,60.2c-0.4,25-22.6,55.6-6.6,74.8"/>
				<path class="st3" d="M120.9,70.1c21-1.8,15.2,41.1,12.7,62.1c-2.5,21.2,22,38.9,21.6,60.2c-0.4,25-22.6,55.6-6.6,74.8"/>
				<path class="st1" d="M153.3,74.8c13.1,12.3,12.3,34,15,51.7c3.9,25.1,11.8,49.9,11.8,75.2c0,22.1-7.5,46.5,2.4,66.3"/>
				<path class="st3" d="M153.3,74.8c13.1,12.3,12.3,34,15,51.7c3.9,25.1,11.8,49.9,11.8,75.2c0,22.1-7.5,46.5,2.4,66.3"/>
				<path class="st1" d="M193.8,77.6c18.2,40.6,36.2,82.8,41.4,127c2.4,20.9-2.8,42-2.8,63"/>
				<path class="st3" d="M193.8,77.6c18.2,40.6,36.2,82.8,41.4,127c2.4,20.9-2.8,42-2.8,63"/>
				<path class="st1" d="M216.3,65.4c10.9,15.3,27.3,26.7,36.2,43.3c15.1,28.1,8,63.3,14.1,94.5c4.2,21.3,18.1,42,15,63.5"/>
				<path class="st3" d="M216.3,65.4c10.9,15.3,27.3,26.7,36.2,43.3c15.1,28.1,8,63.3,14.1,94.5c4.2,21.3,18.1,42,15,63.5"/>
				<path class="st1" d="M262.7,282.4h28.7l5.7,5.7v28.3l0,0h-28.7l-5.7-5.7V282.4z"/>
				<path class="st3" d="M262.7,282.4h28.7l5.7,5.7v28.3l0,0h-28.7l-5.7-5.7V282.4z"/>
				<path class="st1" d="M32.5,275.5h38.2v43.8H32.5V275.5z"/>
				<path class="st1" d="M79.5,275.4h38.2v43.8H79.5V275.4z"/>
				<path class="st2" d="M88.5,286.8h24v24h-24V286.8z"/>
				<path class="st1" d="M126.2,275.4h38.2v43.8h-38.2V275.4z"/>
				<path class="st2" d="M135.2,286.8h24v24h-24V286.8z"/>
				<path class="st1" d="M172.8,275.4H211v43.8h-38.2V275.4z"/>
				<path class="st2" d="M181.8,286.8h24v24h-24V286.8z"/>
				<path class="st1" d="M215.2,274h38.2v43.8h-38.2V274z"/>
				<path class="st2" d="M224.2,285.4h24v24h-24V285.4z"/>
				<path class="st1" d="M257.7,275.5h38.2v43.8h-38.2V275.5z"/>
				<path class="st2" d="M266.7,287h24v24h-24V287z"/>
			</g>
		</g>
	</g>
</g>
<g id="Livello_2">
	<path class="st4" d="M42.9,286.6h24v24h-24V286.6z"/>
	<text transform="matrix(1 0 0 1 42.853 307.8333)" class="st5 st6">A</text>
	<path class="st4" d="M88.7,286.6h24v24h-24V286.6z"/>
	<text transform="matrix(1 0 0 1 88.6745 307.8333)" class="st5 st6">A</text>
	<path class="st4" d="M134.5,286.6h24v24h-24V286.6z"/>
	<text transform="matrix(1 0 0 1 134.496 307.8333)" class="st5 st6">A</text>
	<path class="st4" d="M180.3,286.6h24v24h-24V286.6z"/>
	<text transform="matrix(1 0 0 1 180.3175 307.8333)" class="st5 st6">A</text>
	<path class="st4" d="M226.1,286.6h24v24h-24V286.6z"/>
	<text transform="matrix(1 0 0 1 226.1391 307.8333)" class="st5 st6">A</text>
	<path class="st4" d="M268.5,286.6h24v24h-24V286.6z"/>
	<text transform="matrix(1 0 0 1 268.496 307.8333)" class="st5 st6">A</text>
</g>
</svg>
